<svg xmlns="http://www.w3.org/2000/svg" viewBox="0 0 70 70"><defs><style>.a{fill:#81909d;}</style></defs><path class="a" d="M34.458,25.536v22.7a.132.132,0,0,0-.135.135.187.187,0,0,1-.27,0c-5.81-4.459-12.972-5.269-15.809-5.4a.291.291,0,0,1-.27-.27V19.726a.291.291,0,0,1,.27-.27,24.977,24.977,0,0,1,3.108-.135c9.458,0,12.431,3.378,12.972,4.188v2.027ZM18.108,44.181a1.5,1.5,0,0,1-1.486-1.486V22.969h0a1.218,1.218,0,0,0-.676.135c-.27,0-.54.405-.54.676V46.208a.676.676,0,0,0,.811.676,36.223,36.223,0,0,1,6.486-.54,27.158,27.158,0,0,1,6.486.676h0a30.807,30.807,0,0,0-11.08-2.837m34.05-1.486V19.726a.291.291,0,0,0-.27-.27,26.038,26.038,0,0,0-3.243-.135,25.636,25.636,0,0,0-9.188,1.486,7.9,7.9,0,0,0-3.783,2.7V48.37a.132.132,0,0,1,.135.135.187.187,0,0,0,.27,0c5.81-4.459,12.972-5.269,15.809-5.4.135-.135.27-.27.27-.405M53.78,22.969a1.021,1.021,0,0,1-.54-.135h0V42.56a1.5,1.5,0,0,1-1.486,1.486,33.568,33.568,0,0,0-11.08,2.7h0a37.076,37.076,0,0,1,12.836-.135.757.757,0,0,0,.811-.676V23.915c.27-.405,0-.811-.54-.946m-5,44.181a35.774,35.774,0,0,1-15.269,2.837A35.009,35.009,0,1,1,69.994,34.994a14.684,14.684,0,0,1-.135,2.432M55.807,22.969A.9.9,0,0,0,55,22.023c-.54-.135-1.081-.135-1.621-.27h0V19.726a1.48,1.48,0,0,0-1.351-1.486c-11.08-.811-15.4,2.432-16.89,4.188h0c-1.486-1.621-5.81-5-16.89-4.188a1.389,1.389,0,0,0-1.351,1.486v2.027h0c-.54.135-1.081.135-1.621.27a1.159,1.159,0,0,0-.811.946V47.154a1.032,1.032,0,0,0,.27.676.993.993,0,0,0,.811.27c2.027-.405,12.431-2.027,18.647,2.027a.812.812,0,0,0,.54.135h.811a.812.812,0,0,0,.54-.135c6.216-4.053,16.62-2.432,18.647-2.027a.824.824,0,0,0,.946-.405.812.812,0,0,0,.135-.54Z" transform="translate(0.006)"/></svg>