<svg xmlns="http://www.w3.org/2000/svg" viewBox="0 0 15.326 12.999">
  <defs>
    <style>
      .cls-1 {
        fill: #515151;
        stroke: rgba(0,0,0,0);
      }
    </style>
  </defs>
  <path id="img_icn_coffe_level_3" class="cls-1" d="M-6004.077,22.553h-.339c-.294,0-.7,0-1.159-.036A1.475,1.475,0,0,1-6007,20.833V17.8c0-1.274,0-2.022,1.238-2.022h1.239V14.008l11.849-.008v6.378A5.687,5.687,0,0,1-5998.6,26,5.875,5.875,0,0,1-6004.077,22.553Zm-1.6-4.794v3.109c0,.232.035.3.151.3a2.558,2.558,0,0,0,1.113,0,6.678,6.678,0,0,1-.071-.864V17.082h-.935C-6005.646,17.082-6005.681,17.162-6005.681,17.759Z" transform="translate(6007.5 -13.5)"/>
</svg>
